<?xml version="1.0" encoding="UTF-8" standalone="no"?><svg xmlns="http://www.w3.org/2000/svg" xmlns:xlink="http://www.w3.org/1999/xlink" contentStyleType="text/css" height="356px" preserveAspectRatio="none" style="width:422px;height:356px;background:#FFFFFF;" version="1.1" viewBox="0 0 422 356" width="422px" zoomAndPan="magnify"><defs/><g><line style="stroke:#181818;stroke-width:0.5;stroke-dasharray:5.0,5.0;" x1="25" x2="25" y1="81.2969" y2="276.0938"/><line style="stroke:#181818;stroke-width:0.5;stroke-dasharray:5.0,5.0;" x1="130" x2="130" y1="81.2969" y2="276.0938"/><line style="stroke:#181818;stroke-width:0.5;stroke-dasharray:5.0,5.0;" x1="185" x2="185" y1="81.2969" y2="276.0938"/><line style="stroke:#181818;stroke-width:0.5;stroke-dasharray:5.0,5.0;" x1="236" x2="236" y1="81.2969" y2="276.0938"/><line style="stroke:#181818;stroke-width:0.5;stroke-dasharray:5.0,5.0;" x1="286" x2="286" y1="81.2969" y2="276.0938"/><line style="stroke:#181818;stroke-width:0.5;stroke-dasharray:5.0,5.0;" x1="343" x2="343" y1="81.2969" y2="276.0938"/><line style="stroke:#181818;stroke-width:0.5;stroke-dasharray:5.0,5.0;" x1="400" x2="400" y1="81.2969" y2="276.0938"/><text fill="#000000" font-family="sans-serif" font-size="14" lengthAdjust="spacing" textLength="35" x="5" y="77.9951">Foo1</text><ellipse cx="25.5" cy="13.5" fill="#E2E2F0" rx="8" ry="8" style="stroke:#181818;stroke-width:0.5;"/><path d="M25.5,21.5 L25.5,48.5 M12.5,29.5 L38.5,29.5 M25.5,48.5 L12.5,63.5 M25.5,48.5 L38.5,63.5 " fill="none" style="stroke:#181818;stroke-width:0.5;"/><text fill="#000000" font-family="sans-serif" font-size="14" lengthAdjust="spacing" textLength="35" x="5" y="288.0889">Foo1</text><ellipse cx="25.5" cy="299.8906" fill="#E2E2F0" rx="8" ry="8" style="stroke:#181818;stroke-width:0.5;"/><path d="M25.5,307.8906 L25.5,334.8906 M12.5,315.8906 L38.5,315.8906 M25.5,334.8906 L12.5,349.8906 M25.5,334.8906 L38.5,349.8906 " fill="none" style="stroke:#181818;stroke-width:0.5;"/><text fill="#000000" font-family="sans-serif" font-size="14" lengthAdjust="spacing" textLength="34" x="110.5" y="77.9951">Foo2</text><path d="M110,37 L110,61 M110,49 L127,49 " fill="none" style="stroke:#181818;stroke-width:0.5;"/><ellipse cx="139" cy="49" fill="#E2E2F0" rx="12" ry="12" style="stroke:#181818;stroke-width:0.5;"/><text fill="#000000" font-family="sans-serif" font-size="14" lengthAdjust="spacing" textLength="34" x="110.5" y="288.0889">Foo2</text><path d="M110,295.3906 L110,319.3906 M110,307.3906 L127,307.3906 " fill="none" style="stroke:#181818;stroke-width:0.5;"/><ellipse cx="139" cy="307.3906" fill="#E2E2F0" rx="12" ry="12" style="stroke:#181818;stroke-width:0.5;"/><text fill="#000000" font-family="sans-serif" font-size="14" lengthAdjust="spacing" textLength="35" x="165" y="77.9951">Foo3</text><ellipse cx="185.5" cy="49" fill="#E2E2F0" rx="12" ry="12" style="stroke:#181818;stroke-width:0.5;"/><polygon fill="#181818" points="181.5,37,187.5,32,185.5,37,187.5,42,181.5,37" style="stroke:#181818;stroke-width:1.0;"/><text fill="#000000" font-family="sans-serif" font-size="14" lengthAdjust="spacing" textLength="35" x="165" y="288.0889">Foo3</text><ellipse cx="185.5" cy="307.3906" fill="#E2E2F0" rx="12" ry="12" style="stroke:#181818;stroke-width:0.5;"/><polygon fill="#181818" points="181.5,295.3906,187.5,290.3906,185.5,295.3906,187.5,300.3906,181.5,295.3906" style="stroke:#181818;stroke-width:1.0;"/><text fill="#000000" font-family="sans-serif" font-size="14" lengthAdjust="spacing" textLength="34" x="216" y="77.9951">Foo4</text><ellipse cx="236" cy="49" fill="#E2E2F0" rx="12" ry="12" style="stroke:#181818;stroke-width:0.5;"/><line style="stroke:#181818;stroke-width:0.5;" x1="224" x2="248" y1="63" y2="63"/><text fill="#000000" font-family="sans-serif" font-size="14" lengthAdjust="spacing" textLength="34" x="216" y="288.0889">Foo4</text><ellipse cx="236" cy="307.3906" fill="#E2E2F0" rx="12" ry="12" style="stroke:#181818;stroke-width:0.5;"/><line style="stroke:#181818;stroke-width:0.5;" x1="224" x2="248" y1="321.3906" y2="321.3906"/><text fill="#000000" font-family="sans-serif" font-size="14" lengthAdjust="spacing" textLength="35" x="266" y="77.9951">Foo5</text><path d="M268.5,29 C268.5,19 286.5,19 286.5,19 C286.5,19 304.5,19 304.5,29 L304.5,55 C304.5,65 286.5,65 286.5,65 C286.5,65 268.5,65 268.5,55 L268.5,29 " fill="#E2E2F0" style="stroke:#181818;stroke-width:1.5;"/><path d="M268.5,29 C268.5,39 286.5,39 286.5,39 C286.5,39 304.5,39 304.5,29 " fill="none" style="stroke:#181818;stroke-width:1.5;"/><text fill="#000000" font-family="sans-serif" font-size="14" lengthAdjust="spacing" textLength="35" x="266" y="288.0889">Foo5</text><path d="M268.5,301.3906 C268.5,291.3906 286.5,291.3906 286.5,291.3906 C286.5,291.3906 304.5,291.3906 304.5,301.3906 L304.5,327.3906 C304.5,337.3906 286.5,337.3906 286.5,337.3906 C286.5,337.3906 268.5,337.3906 268.5,327.3906 L268.5,301.3906 " fill="#E2E2F0" style="stroke:#181818;stroke-width:1.5;"/><path d="M268.5,301.3906 C268.5,311.3906 286.5,311.3906 286.5,311.3906 C286.5,311.3906 304.5,311.3906 304.5,301.3906 " fill="none" style="stroke:#181818;stroke-width:1.5;"/><rect fill="#E2E2F0" height="30.2969" style="stroke:#181818;stroke-width:0.5;" width="49" x="321" y="46"/><rect fill="#E2E2F0" height="30.2969" style="stroke:#181818;stroke-width:0.5;" width="49" x="317" y="50"/><text fill="#000000" font-family="sans-serif" font-size="14" lengthAdjust="spacing" textLength="35" x="324" y="69.9951">Foo6</text><rect fill="#E2E2F0" height="30.2969" style="stroke:#181818;stroke-width:0.5;" width="49" x="321" y="275.0938"/><rect fill="#E2E2F0" height="30.2969" style="stroke:#181818;stroke-width:0.5;" width="49" x="317" y="279.0938"/><text fill="#000000" font-family="sans-serif" font-size="14" lengthAdjust="spacing" textLength="35" x="324" y="299.0889">Foo6</text><text fill="#000000" font-family="sans-serif" font-size="14" lengthAdjust="spacing" textLength="35" x="380" y="77.9951">Foo7</text><ellipse cx="400.5" cy="13.5" fill="#E2E2F0" rx="8" ry="8" style="stroke:#181818;stroke-width:0.5;"/><path d="M400.5,21.5 L400.5,48.5 M387.5,29.5 L413.5,29.5 M400.5,48.5 L387.5,63.5 M400.5,48.5 L413.5,63.5 " fill="none" style="stroke:#181818;stroke-width:0.5;"/><text fill="#000000" font-family="sans-serif" font-size="14" lengthAdjust="spacing" textLength="35" x="380" y="288.0889">Foo7</text><ellipse cx="400.5" cy="299.8906" fill="#E2E2F0" rx="8" ry="8" style="stroke:#181818;stroke-width:0.5;"/><path d="M400.5,307.8906 L400.5,334.8906 M387.5,315.8906 L413.5,315.8906 M400.5,334.8906 L387.5,349.8906 M400.5,334.8906 L413.5,349.8906 " fill="none" style="stroke:#181818;stroke-width:0.5;"/><polygon fill="#181818" points="118.5,108.4297,128.5,112.4297,118.5,116.4297,122.5,112.4297" style="stroke:#181818;stroke-width:1.0;"/><line style="stroke:#181818;stroke-width:1.0;" x1="25.5" x2="124.5" y1="112.4297" y2="112.4297"/><text fill="#000000" font-family="sans-serif" font-size="13" lengthAdjust="spacing" textLength="81" x="32.5" y="107.3638">To boundary</text><polygon fill="#181818" points="173.5,137.5625,183.5,141.5625,173.5,145.5625,177.5,141.5625" style="stroke:#181818;stroke-width:1.0;"/><line style="stroke:#181818;stroke-width:1.0;" x1="25.5" x2="179.5" y1="141.5625" y2="141.5625"/><text fill="#000000" font-family="sans-serif" font-size="13" lengthAdjust="spacing" textLength="64" x="32.5" y="136.4966">To control</text><polygon fill="#181818" points="224,166.6953,234,170.6953,224,174.6953,228,170.6953" style="stroke:#181818;stroke-width:1.0;"/><line style="stroke:#181818;stroke-width:1.0;" x1="25.5" x2="230" y1="170.6953" y2="170.6953"/><text fill="#000000" font-family="sans-serif" font-size="13" lengthAdjust="spacing" textLength="57" x="32.5" y="165.6294">To entity</text><polygon fill="#181818" points="274.5,195.8281,284.5,199.8281,274.5,203.8281,278.5,199.8281" style="stroke:#181818;stroke-width:1.0;"/><line style="stroke:#181818;stroke-width:1.0;" x1="25.5" x2="280.5" y1="199.8281" y2="199.8281"/><text fill="#000000" font-family="sans-serif" font-size="13" lengthAdjust="spacing" textLength="80" x="32.5" y="194.7622">To database</text><polygon fill="#181818" points="331.5,224.9609,341.5,228.9609,331.5,232.9609,335.5,228.9609" style="stroke:#181818;stroke-width:1.0;"/><line style="stroke:#181818;stroke-width:1.0;" x1="25.5" x2="337.5" y1="228.9609" y2="228.9609"/><text fill="#000000" font-family="sans-serif" font-size="13" lengthAdjust="spacing" textLength="87" x="32.5" y="223.895">To collections</text><polygon fill="#181818" points="36.5,254.0938,26.5,258.0938,36.5,262.0938,32.5,258.0938" style="stroke:#181818;stroke-width:1.0;"/><line style="stroke:#181818;stroke-width:1.0;" x1="30.5" x2="129.5" y1="258.0938" y2="258.0938"/><text fill="#000000" font-family="sans-serif" font-size="13" lengthAdjust="spacing" textLength="53" x="42.5" y="253.0278">To actor</text><!--MD5=[bfcd31d6792012fd719fdfadb67d78f1]
@startuml
actor Foo1
boundary Foo2
control Foo3
entity Foo4
database Foo5
collections Foo6
actor Foo7
Foo1 -> Foo2 : To boundary
Foo1 -> Foo3 : To control
Foo1 -> Foo4 : To entity
Foo1 -> Foo5 : To database
Foo1 -> Foo6 : To collections
Foo2 -> Foo1 : To actor
@enduml

PlantUML version 1.2022.6beta5(Unknown compile time)
(GPL source distribution)
Java Runtime: Java(TM) SE Runtime Environment
JVM: Java HotSpot(TM) 64-Bit Server VM
Default Encoding: UTF-8
Language: en
Country: US
--></g></svg>